<mxfile host="app.diagrams.net" modified="2023-06-19T20:07:49.618Z" agent="Mozilla/5.0 (Windows NT 10.0; Win64; x64) AppleWebKit/537.36 (KHTML, like Gecko) Chrome/114.0.0.0 Safari/537.36" etag="aOA8VZc2o8tDlOxEVR9u" version="21.1.5" type="github" pages="2">
  <diagram name="Page-1" id="rUXdYFg2CER7S0BxmrQ9">
    <mxGraphModel dx="880" dy="484" grid="1" gridSize="10" guides="1" tooltips="1" connect="1" arrows="1" fold="1" page="1" pageScale="1" pageWidth="1169" pageHeight="827" math="0" shadow="0">
      <root>
        <mxCell id="0" />
        <mxCell id="1" parent="0" />
        <mxCell id="jLCia8u1AtIToyHJc67I-3" value="" style="edgeStyle=orthogonalEdgeStyle;rounded=0;orthogonalLoop=1;jettySize=auto;html=1;" edge="1" parent="1" source="jLCia8u1AtIToyHJc67I-1" target="jLCia8u1AtIToyHJc67I-2">
          <mxGeometry relative="1" as="geometry" />
        </mxCell>
        <mxCell id="jLCia8u1AtIToyHJc67I-9" style="edgeStyle=orthogonalEdgeStyle;rounded=0;orthogonalLoop=1;jettySize=auto;html=1;" edge="1" parent="1" source="jLCia8u1AtIToyHJc67I-1" target="jLCia8u1AtIToyHJc67I-5">
          <mxGeometry relative="1" as="geometry">
            <Array as="points">
              <mxPoint x="450" y="90" />
              <mxPoint x="210" y="90" />
            </Array>
          </mxGeometry>
        </mxCell>
        <mxCell id="jLCia8u1AtIToyHJc67I-11" value="" style="edgeStyle=orthogonalEdgeStyle;rounded=0;orthogonalLoop=1;jettySize=auto;html=1;" edge="1" parent="1" source="jLCia8u1AtIToyHJc67I-1" target="jLCia8u1AtIToyHJc67I-10">
          <mxGeometry relative="1" as="geometry" />
        </mxCell>
        <mxCell id="jLCia8u1AtIToyHJc67I-1" value="Emissor" style="ellipse;whiteSpace=wrap;html=1;" vertex="1" parent="1">
          <mxGeometry x="390" y="200" width="120" height="80" as="geometry" />
        </mxCell>
        <mxCell id="jLCia8u1AtIToyHJc67I-2" value="Banco do Brasil" style="ellipse;whiteSpace=wrap;html=1;" vertex="1" parent="1">
          <mxGeometry x="620" y="200" width="120" height="80" as="geometry" />
        </mxCell>
        <mxCell id="jLCia8u1AtIToyHJc67I-4" value="Agente V/ID" style="shape=umlActor;verticalLabelPosition=bottom;verticalAlign=top;html=1;outlineConnect=0;" vertex="1" parent="1">
          <mxGeometry x="40" y="180" width="30" height="60" as="geometry" />
        </mxCell>
        <mxCell id="jLCia8u1AtIToyHJc67I-6" value="" style="edgeStyle=orthogonalEdgeStyle;rounded=0;orthogonalLoop=1;jettySize=auto;html=1;" edge="1" parent="1" source="jLCia8u1AtIToyHJc67I-5" target="jLCia8u1AtIToyHJc67I-1">
          <mxGeometry relative="1" as="geometry" />
        </mxCell>
        <mxCell id="jLCia8u1AtIToyHJc67I-5" value="Portal" style="ellipse;whiteSpace=wrap;html=1;" vertex="1" parent="1">
          <mxGeometry x="150" y="200" width="120" height="80" as="geometry" />
        </mxCell>
        <mxCell id="jLCia8u1AtIToyHJc67I-8" style="edgeStyle=orthogonalEdgeStyle;rounded=0;orthogonalLoop=1;jettySize=auto;html=1;" edge="1" parent="1" source="jLCia8u1AtIToyHJc67I-7" target="jLCia8u1AtIToyHJc67I-1">
          <mxGeometry relative="1" as="geometry" />
        </mxCell>
        <mxCell id="jLCia8u1AtIToyHJc67I-7" value="Webhook Banco do Brasil" style="ellipse;whiteSpace=wrap;html=1;" vertex="1" parent="1">
          <mxGeometry x="620" y="50" width="120" height="80" as="geometry" />
        </mxCell>
        <mxCell id="jLCia8u1AtIToyHJc67I-10" value="" style="shape=cylinder3;whiteSpace=wrap;html=1;boundedLbl=1;backgroundOutline=1;size=15;" vertex="1" parent="1">
          <mxGeometry x="420" y="320" width="60" height="80" as="geometry" />
        </mxCell>
      </root>
    </mxGraphModel>
  </diagram>
  <diagram id="A5PNGPI1fTCyG_zGyprZ" name="Page-2">
    <mxGraphModel dx="880" dy="484" grid="1" gridSize="10" guides="1" tooltips="1" connect="1" arrows="1" fold="1" page="1" pageScale="1" pageWidth="1169" pageHeight="827" math="0" shadow="0">
      <root>
        <mxCell id="0" />
        <mxCell id="1" parent="0" />
      </root>
    </mxGraphModel>
  </diagram>
</mxfile>
